<svg xmlns="http://www.w3.org/2000/svg" viewBox="0 0 200 200" width="200" height="200">
  <rect width="200" height="200" fill="#FAFAF7"/>
  <g stroke="#B8860B" stroke-width="1.3" stroke-linecap="round" fill="none">
  <line x1="100.00" y1="60.00" x2="100.00" y2="56.52"/>
  <line x1="129.94" y1="73.48" x2="133.03" y2="70.74"/>
  <line x1="132.92" y1="77.28" x2="136.65" y2="74.70"/>
  <line x1="135.42" y1="81.41" x2="139.23" y2="79.41"/>
  <line x1="137.40" y1="85.82" x2="140.19" y2="84.76"/>
  <line x1="138.84" y1="90.43" x2="140.67" y2="89.98"/>
  <line x1="139.71" y1="95.18" x2="142.19" y2="94.88"/>
  <line x1="140.00" y1="100.00" x2="144.40" y2="100.00"/>
  <line x1="139.71" y1="104.82" x2="145.36" y2="105.51"/>
  <line x1="138.84" y1="109.57" x2="144.09" y2="110.87"/>
  <line x1="137.40" y1="114.18" x2="141.60" y2="115.78"/>
  <line x1="135.42" y1="118.59" x2="139.09" y2="120.52"/>
  <line x1="132.92" y1="122.72" x2="136.38" y2="125.11"/>
  <line x1="129.94" y1="126.52" x2="132.77" y2="129.03"/>
  <line x1="126.52" y1="129.94" x2="128.47" y2="132.14"/>
  <line x1="122.72" y1="132.92" x2="124.27" y2="135.16"/>
  <line x1="118.59" y1="135.42" x2="120.22" y2="138.52"/>
  <line x1="114.18" y1="137.40" x2="115.71" y2="141.42"/>
  <line x1="109.57" y1="138.84" x2="110.59" y2="142.96"/>
  <line x1="104.82" y1="139.71" x2="105.30" y2="143.65"/>
  <line x1="100.00" y1="140.00" x2="100.00" y2="144.52"/>
  <line x1="95.18" y1="139.71" x2="94.51" y2="145.23"/>
  <line x1="90.43" y1="138.84" x2="89.10" y2="144.23"/>
  <line x1="85.82" y1="137.40" x2="84.42" y2="141.09"/>
  <line x1="81.41" y1="135.42" x2="80.39" y2="137.36"/>
  <line x1="77.28" y1="132.92" x2="76.13" y2="134.57"/>
  <line x1="73.48" y1="129.94" x2="71.32" y2="132.38"/>
  <line x1="70.06" y1="126.52" x2="66.81" y2="129.40"/>
  <line x1="67.08" y1="122.72" x2="63.41" y2="125.26"/>
  <line x1="64.58" y1="118.59" x2="60.72" y2="120.62"/>
  <line x1="62.60" y1="114.18" x2="58.13" y2="115.88"/>
  <line x1="61.16" y1="109.57" x2="56.13" y2="110.81"/>
  <line x1="60.29" y1="104.82" x2="55.65" y2="105.39"/>
  <line x1="60.00" y1="100.00" x2="56.40" y2="100.00"/>
  <line x1="60.29" y1="95.18" x2="57.18" y2="94.80"/>
  <line x1="61.16" y1="90.43" x2="57.74" y2="89.58"/>
  <line x1="62.60" y1="85.82" x2="59.10" y2="84.49"/>
  <line x1="64.58" y1="81.41" x2="61.76" y2="79.93"/>
  <line x1="67.08" y1="77.28" x2="64.78" y2="75.69"/>
  <line x1="70.06" y1="73.48" x2="67.25" y2="70.99"/>
  <line x1="73.48" y1="70.06" x2="69.81" y2="65.92"/>
  <line x1="77.28" y1="67.08" x2="73.72" y2="61.92"/>
  <line x1="81.41" y1="64.58" x2="79.01" y2="60.01"/>
  <line x1="85.82" y1="62.60" x2="84.59" y2="59.36"/>
  <line x1="90.43" y1="61.16" x2="89.75" y2="58.43"/>
  <line x1="95.18" y1="60.29" x2="94.79" y2="57.11"/>
</g>
<circle cx="115.73" cy="61.06" r="15" fill="#FAFAF7"/>
<circle cx="115.73" cy="61.06" r="10" fill="#B8860B"/>

</svg>
