<svg xmlns="http://www.w3.org/2000/svg" viewBox="0 0 200 200" width="200" height="200">
  <rect width="200" height="200" fill="#FAFAF7"/>
  <g stroke="#B8860B" stroke-width="1.4" stroke-linecap="round" fill="none">
  <line x1="100.00" y1="56.00" x2="100.00" y2="52.57"/>
  <line x1="131.11" y1="68.89" x2="134.01" y2="65.99"/>
  <line x1="134.40" y1="72.57" x2="137.77" y2="69.88"/>
  <line x1="137.26" y1="76.59" x2="141.18" y2="74.12"/>
  <line x1="139.64" y1="80.91" x2="143.25" y2="79.17"/>
  <line x1="141.53" y1="85.47" x2="143.92" y2="84.63"/>
  <line x1="142.90" y1="90.21" x2="144.49" y2="89.84"/>
  <line x1="143.72" y1="95.07" x2="146.18" y2="94.80"/>
  <line x1="144.00" y1="100.00" x2="148.43" y2="100.00"/>
  <line x1="143.72" y1="104.93" x2="149.50" y2="105.58"/>
  <line x1="142.90" y1="109.79" x2="148.44" y2="111.06"/>
  <line x1="141.53" y1="114.53" x2="146.00" y2="116.10"/>
  <line x1="139.64" y1="119.09" x2="143.41" y2="120.91"/>
  <line x1="137.26" y1="123.41" x2="140.83" y2="125.66"/>
  <line x1="134.40" y1="127.43" x2="137.58" y2="129.97"/>
  <line x1="131.11" y1="131.11" x2="133.44" y2="133.44"/>
  <line x1="127.43" y1="134.40" x2="129.04" y2="136.42"/>
  <line x1="123.41" y1="137.26" x2="124.91" y2="139.64"/>
  <line x1="119.09" y1="139.64" x2="120.73" y2="143.04"/>
  <line x1="114.53" y1="141.53" x2="115.98" y2="145.68"/>
  <line x1="109.79" y1="142.90" x2="110.73" y2="147.01"/>
  <line x1="104.93" y1="143.72" x2="105.37" y2="147.67"/>
  <line x1="100.00" y1="144.00" x2="100.00" y2="148.57"/>
  <line x1="95.07" y1="143.72" x2="94.44" y2="149.34"/>
  <line x1="90.21" y1="142.90" x2="88.91" y2="148.58"/>
  <line x1="85.47" y1="141.53" x2="84.01" y2="145.69"/>
  <line x1="80.91" y1="139.64" x2="79.85" y2="141.84"/>
  <line x1="76.59" y1="137.26" x2="75.72" y2="138.65"/>
  <line x1="72.57" y1="134.40" x2="71.00" y2="136.36"/>
  <line x1="68.89" y1="131.11" x2="66.13" y2="133.87"/>
  <line x1="65.60" y1="127.43" x2="62.05" y2="130.27"/>
  <line x1="62.74" y1="123.41" x2="58.99" y2="125.77"/>
  <line x1="60.36" y1="119.09" x2="56.33" y2="121.03"/>
  <line x1="58.47" y1="114.53" x2="53.76" y2="116.18"/>
  <line x1="57.10" y1="109.79" x2="51.95" y2="110.97"/>
  <line x1="56.28" y1="104.93" x2="51.64" y2="105.45"/>
  <line x1="56.00" y1="100.00" x2="52.43" y2="100.00"/>
  <line x1="56.28" y1="95.07" x2="53.25" y2="94.73"/>
  <line x1="57.10" y1="90.21" x2="53.80" y2="89.45"/>
  <line x1="58.47" y1="85.47" x2="54.94" y2="84.23"/>
  <line x1="60.36" y1="80.91" x2="57.35" y2="79.46"/>
  <line x1="62.74" y1="76.59" x2="60.46" y2="75.15"/>
  <line x1="65.60" y1="72.57" x2="63.19" y2="70.65"/>
  <line x1="68.89" y1="68.89" x2="65.55" y2="65.55"/>
  <line x1="72.57" y1="65.60" x2="68.65" y2="60.69"/>
  <line x1="76.59" y1="62.74" x2="73.26" y2="57.44"/>
  <line x1="80.91" y1="60.36" x2="78.87" y2="56.11"/>
  <line x1="85.47" y1="58.47" x2="84.43" y2="55.52"/>
  <line x1="90.21" y1="57.10" x2="89.61" y2="54.46"/>
  <line x1="95.07" y1="56.28" x2="94.72" y2="53.13"/>
</g>
<circle cx="117.23" cy="57.35" r="15" fill="#FAFAF7"/>
<circle cx="117.23" cy="57.35" r="10" fill="#B8860B"/>

</svg>
