<svg xmlns="http://www.w3.org/2000/svg" viewBox="0 0 200 200" width="200" height="200">
  <rect width="200" height="200" fill="#FAFAF7"/>
  <path d="M 100.00 57.45 L 100.75 57.25 L 101.50 57.04 L 102.26 56.84 L 103.03 56.64 L 103.81 56.46 L 104.60 56.28 L 105.39 56.13 L 106.18 55.99 L 106.99 55.89 L 107.79 55.82 L 108.59 55.78 L 109.40 55.79 L 110.20 55.84 L 110.99 55.93 L 111.77 56.06 L 112.55 56.24 L 113.31 56.47 L 114.06 56.74 L 114.79 57.05 L 115.50 57.41 L 116.20 57.80 L 116.88 58.22 L 117.54 58.67 L 118.19 59.14 L 118.82 59.64 L 119.44 60.14 L 120.04 60.66 L 120.64 61.18 L 121.23 61.71 L 121.81 62.23 L 122.39 62.74 L 122.96 63.25 L 123.54 63.75 L 124.12 64.24 L 124.71 64.71 L 125.30 65.17 L 125.90 65.62 L 126.51 66.06 L 127.13 66.50 L 127.75 66.93 L 128.38 67.36 L 129.00 67.79 L 129.63 68.22 L 130.26 68.67 L 130.88 69.12 L 131.48 69.60 L 132.08 70.09 L 132.65 70.60 L 133.20 71.14 L 133.72 71.70 L 134.21 72.29 L 134.67 72.91 L 135.09 73.56 L 135.46 74.23 L 135.80 74.94 L 136.09 75.66 L 136.33 76.41 L 136.53 77.17 L 136.69 77.95 L 136.81 78.75 L 136.90 79.55 L 136.95 80.35 L 136.98 81.16 L 136.98 81.96 L 136.97 82.76 L 136.95 83.55 L 136.93 84.33 L 136.91 85.09 L 136.90 85.84 L 136.91 86.57 L 136.94 87.28 L 137.00 87.98 L 137.10 88.66 L 137.23 89.32 L 137.41 89.98 L 137.62 90.62 L 137.89 91.25 L 138.19 91.88 L 138.54 92.51 L 138.92 93.14 L 139.35 93.77 L 139.80 94.41 L 140.28 95.05 L 140.78 95.71 L 141.29 96.39 L 141.81 97.08 L 142.33 97.78 L 142.84 98.50 L 143.33 99.24 L 143.79 100.00 L 144.22 100.77 L 144.61 101.56 L 144.96 102.36 L 145.25 103.16 L 145.49 103.98 L 145.67 104.80 L 145.79 105.62 L 145.85 106.44 L 145.84 107.26 L 145.77 108.07 L 145.64 108.87 L 145.45 109.66 L 145.21 110.44 L 144.92 111.20 L 144.58 111.95 L 144.21 112.68 L 143.80 113.39 L 143.36 114.09 L 142.90 114.77 L 142.42 115.44 L 141.93 116.10 L 141.44 116.74 L 140.94 117.38 L 140.45 118.01 L 139.96 118.63 L 139.48 119.26 L 139.01 119.88 L 138.55 120.50 L 138.10 121.12 L 137.66 121.75 L 137.24 122.37 L 136.81 123.00 L 136.40 123.64 L 135.98 124.27 L 135.57 124.90 L 135.15 125.54 L 134.72 126.16 L 134.28 126.79 L 133.83 127.40 L 133.37 128.00 L 132.88 128.58 L 132.38 129.15 L 131.85 129.70 L 131.30 130.23 L 130.73 130.73 L 130.13 131.20 L 129.51 131.64 L 128.87 132.06 L 128.21 132.45 L 127.53 132.81 L 126.84 133.14 L 126.13 133.45 L 125.42 133.73 L 124.70 134.00 L 123.98 134.24 L 123.25 134.47 L 122.53 134.69 L 121.81 134.91 L 121.10 135.12 L 120.40 135.34 L 119.71 135.56 L 119.03 135.79 L 118.36 136.03 L 117.70 136.29 L 117.05 136.56 L 116.41 136.86 L 115.78 137.17 L 115.15 137.50 L 114.53 137.85 L 113.91 138.22 L 113.29 138.60 L 112.67 139.00 L 112.05 139.40 L 111.41 139.81 L 110.77 140.21 L 110.13 140.61 L 109.47 141.00 L 108.80 141.38 L 108.11 141.74 L 107.42 142.07 L 106.71 142.37 L 105.99 142.65 L 105.27 142.88 L 104.53 143.08 L 103.78 143.24 L 103.03 143.36 L 102.28 143.44 L 101.52 143.48 L 100.76 143.48 L 100.00 143.45 L 99.24 143.38 L 98.49 143.29 L 97.74 143.17 L 96.99 143.03 L 96.25 142.87 L 95.51 142.70 L 94.78 142.53 L 94.05 142.36 L 93.32 142.19 L 92.59 142.04 L 91.86 141.89 L 91.12 141.75 L 90.39 141.64 L 89.64 141.54 L 88.89 141.46 L 88.13 141.39 L 87.36 141.35 L 86.58 141.31 L 85.78 141.29 L 84.98 141.28 L 84.16 141.26 L 83.34 141.24 L 82.50 141.22 L 81.67 141.18 L 80.83 141.12 L 79.99 141.03 L 79.15 140.92 L 78.33 140.76 L 77.51 140.57 L 76.72 140.32 L 75.95 140.03 L 75.20 139.69 L 74.49 139.29 L 73.80 138.84 L 73.16 138.33 L 72.56 137.77 L 72.00 137.15 L 71.49 136.49 L 71.03 135.78 L 70.61 135.03 L 70.23 134.24 L 69.90 133.43 L 69.61 132.59 L 69.36 131.73 L 69.14 130.86 L 68.95 129.98 L 68.79 129.11 L 68.64 128.24 L 68.50 127.38 L 68.38 126.54 L 68.25 125.71 L 68.11 124.91 L 67.96 124.14 L 67.80 123.39 L 67.62 122.68 L 67.40 121.99 L 67.16 121.32 L 66.89 120.69 L 66.59 120.08 L 66.25 119.49 L 65.88 118.92 L 65.47 118.36 L 65.04 117.81 L 64.58 117.28 L 64.09 116.74 L 63.59 116.21 L 63.07 115.68 L 62.54 115.13 L 62.02 114.58 L 61.49 114.02 L 60.97 113.44 L 60.47 112.84 L 59.99 112.23 L 59.53 111.60 L 59.10 110.96 L 58.71 110.30 L 58.35 109.62 L 58.02 108.92 L 57.74 108.22 L 57.49 107.50 L 57.29 106.77 L 57.12 106.03 L 56.98 105.28 L 56.89 104.53 L 56.82 103.78 L 56.77 103.02 L 56.75 102.27 L 56.75 101.51 L 56.77 100.75 L 56.79 100.00 L 56.82 99.25 L 56.85 98.49 L 56.89 97.74 L 56.92 96.99 L 56.94 96.23 L 56.96 95.48 L 56.98 94.72 L 56.98 93.95 L 56.99 93.19 L 56.98 92.41 L 56.98 91.64 L 56.97 90.85 L 56.97 90.07 L 56.98 89.27 L 57.00 88.48 L 57.04 87.68 L 57.09 86.88 L 57.17 86.08 L 57.28 85.29 L 57.42 84.50 L 57.59 83.72 L 57.80 82.95 L 58.06 82.20 L 58.35 81.46 L 58.68 80.73 L 59.06 80.03 L 59.47 79.35 L 59.93 78.69 L 60.42 78.06 L 60.95 77.45 L 61.50 76.87 L 62.09 76.31 L 62.69 75.77 L 63.32 75.26 L 63.96 74.76 L 64.61 74.29 L 65.26 73.82 L 65.92 73.37 L 66.57 72.93 L 67.22 72.50 L 67.86 72.06 L 68.49 71.63 L 69.11 71.19 L 69.71 70.75 L 70.30 70.30 L 70.87 69.84 L 71.43 69.37 L 71.98 68.89 L 72.53 68.39 L 73.06 67.89 L 73.59 67.39 L 74.12 66.87 L 74.65 66.36 L 75.18 65.84 L 75.72 65.33 L 76.27 64.82 L 76.84 64.33 L 77.42 63.86 L 78.01 63.40 L 78.62 62.98 L 79.26 62.58 L 79.91 62.21 L 80.58 61.88 L 81.26 61.58 L 81.97 61.33 L 82.69 61.11 L 83.42 60.93 L 84.16 60.80 L 84.91 60.69 L 85.67 60.63 L 86.43 60.59 L 87.19 60.58 L 87.95 60.58 L 88.70 60.61 L 89.45 60.64 L 90.20 60.68 L 90.93 60.72 L 91.66 60.75 L 92.37 60.76 L 93.08 60.75 L 93.78 60.72 L 94.47 60.65 L 95.16 60.56 L 95.84 60.43 L 96.52 60.26 L 97.21 60.05 L 97.89 59.80 L 98.59 59.52 L 99.29 59.21 L 100.00 58.86 Z M 133 100 A 33 33 0 1 0 67 100 A 33 33 0 1 0 133 100 Z" fill="#B8860B" fill-rule="evenodd"/>
<circle cx="114.24" cy="64.77" r="15" fill="#FAFAF7"/>
<circle cx="114.24" cy="64.77" r="10" fill="#B8860B"/>

</svg>
