<svg xmlns="http://www.w3.org/2000/svg" viewBox="0 0 200 200" width="200" height="200">
  <rect width="200" height="200" fill="#FAFAF7"/>
  <g stroke="#B8860B" stroke-width="1.4" stroke-linecap="round" fill="none">
  <line x1="100.00" y1="50.00" x2="100.00" y2="46.65"/>
  <line x1="105.23" y1="50.27" x2="105.55" y2="47.17"/>
  <line x1="110.40" y1="51.09" x2="111.04" y2="48.08"/>
  <line x1="115.45" y1="52.45" x2="116.64" y2="48.80"/>
  <line x1="120.34" y1="54.32" x2="122.36" y2="49.78"/>
  <line x1="125.00" y1="56.70" x2="127.76" y2="51.92"/>
  <line x1="129.39" y1="59.55" x2="132.37" y2="55.44"/>
  <line x1="133.46" y1="62.84" x2="136.34" y2="59.64"/>
  <line x1="137.16" y1="66.54" x2="140.23" y2="63.78"/>
  <line x1="140.45" y1="70.61" x2="144.15" y2="67.92"/>
  <line x1="143.30" y1="75.00" x2="147.32" y2="72.68"/>
  <line x1="145.68" y1="79.66" x2="148.97" y2="78.20"/>
  <line x1="147.55" y1="84.55" x2="149.47" y2="83.93"/>
  <line x1="148.91" y1="89.60" x2="150.20" y2="89.33"/>
  <line x1="149.73" y1="94.77" x2="152.10" y2="94.52"/>
  <line x1="150.00" y1="100.00" x2="154.49" y2="100.00"/>
  <line x1="149.73" y1="105.23" x2="155.71" y2="105.85"/>
  <line x1="148.91" y1="110.40" x2="154.79" y2="111.65"/>
  <line x1="147.55" y1="115.45" x2="152.36" y2="117.01"/>
  <line x1="145.68" y1="120.34" x2="149.60" y2="122.08"/>
  <line x1="143.30" y1="125.00" x2="146.95" y2="127.11"/>
  <line x1="140.45" y1="129.39" x2="143.87" y2="131.88"/>
  <line x1="137.16" y1="133.46" x2="139.88" y2="135.91"/>
  <line x1="133.46" y1="137.16" x2="135.28" y2="139.19"/>
  <line x1="129.39" y1="140.45" x2="130.77" y2="142.35"/>
  <line x1="125.00" y1="143.30" x2="126.49" y2="145.88"/>
  <line x1="120.34" y1="145.68" x2="121.97" y2="149.34"/>
  <line x1="115.45" y1="147.55" x2="116.83" y2="151.81"/>
  <line x1="110.40" y1="148.91" x2="111.27" y2="153.00"/>
  <line x1="105.23" y1="149.73" x2="105.64" y2="153.69"/>
  <line x1="100.00" y1="150.00" x2="100.00" y2="154.65"/>
  <line x1="94.77" y1="149.73" x2="94.17" y2="155.51"/>
  <line x1="89.60" y1="148.91" x2="88.32" y2="154.93"/>
  <line x1="84.55" y1="147.55" x2="83.03" y2="152.21"/>
  <line x1="79.66" y1="145.68" x2="78.54" y2="148.20"/>
  <line x1="75.00" y1="143.30" x2="74.30" y2="144.51"/>
  <line x1="70.61" y1="140.45" x2="69.59" y2="141.86"/>
  <line x1="66.54" y1="137.16" x2="64.41" y2="139.53"/>
  <line x1="62.84" y1="133.46" x2="59.59" y2="136.38"/>
  <line x1="59.55" y1="129.39" x2="55.81" y2="132.10"/>
  <line x1="56.70" y1="125.00" x2="52.85" y2="127.22"/>
  <line x1="54.32" y1="120.34" x2="50.07" y2="122.23"/>
  <line x1="52.45" y1="115.45" x2="47.45" y2="117.07"/>
  <line x1="51.09" y1="110.40" x2="45.77" y2="111.53"/>
  <line x1="50.27" y1="105.23" x2="45.62" y2="105.72"/>
  <line x1="50.00" y1="100.00" x2="46.49" y2="100.00"/>
  <line x1="50.27" y1="94.77" x2="47.37" y2="94.47"/>
  <line x1="51.09" y1="89.60" x2="47.94" y2="88.93"/>
  <line x1="52.45" y1="84.55" x2="48.94" y2="83.41"/>
  <line x1="54.32" y1="79.66" x2="51.17" y2="78.26"/>
  <line x1="56.70" y1="75.00" x2="54.36" y2="73.65"/>
  <line x1="59.55" y1="70.61" x2="57.46" y2="69.09"/>
  <line x1="62.84" y1="66.54" x2="60.00" y2="63.98"/>
  <line x1="66.54" y1="62.84" x2="62.68" y2="58.55"/>
  <line x1="70.61" y1="59.55" x2="66.59" y2="54.01"/>
  <line x1="75.00" y1="56.70" x2="71.94" y2="51.41"/>
  <line x1="79.66" y1="54.32" x2="77.93" y2="50.44"/>
  <line x1="84.55" y1="52.45" x2="83.69" y2="49.79"/>
  <line x1="89.60" y1="51.09" x2="89.07" y2="48.57"/>
  <line x1="94.77" y1="50.27" x2="94.45" y2="47.20"/>
</g>
<circle cx="125.66" cy="36.49" r="5" fill="#B8860B"/>

</svg>
