<svg xmlns="http://www.w3.org/2000/svg" viewBox="0 0 200 200" width="200" height="200">
  <rect width="200" height="200" fill="#FAFAF7"/>
  <g stroke="#B8860B" stroke-width="1.4" stroke-linecap="round" fill="none">
  <line x1="100.00" y1="69.00" x2="100.00" y2="53.06"/>
  <line x1="123.75" y1="80.07" x2="133.43" y2="71.95"/>
  <line x1="126.85" y1="84.50" x2="135.07" y2="79.75"/>
  <line x1="129.13" y1="89.40" x2="136.37" y2="86.76"/>
  <line x1="130.53" y1="94.62" x2="140.03" y2="92.94"/>
  <line x1="131.00" y1="100.00" x2="144.99" y2="100.00"/>
  <line x1="130.53" y1="105.38" x2="147.30" y2="108.34"/>
  <line x1="129.13" y1="110.60" x2="144.90" y2="116.34"/>
  <line x1="126.85" y1="115.50" x2="139.66" y2="122.90"/>
  <line x1="123.75" y1="119.93" x2="134.24" y2="128.73"/>
  <line x1="119.93" y1="123.75" x2="128.88" y2="134.41"/>
  <line x1="115.50" y1="126.85" x2="122.33" y2="138.68"/>
  <line x1="110.60" y1="129.13" x2="114.67" y2="140.29"/>
  <line x1="105.38" y1="130.53" x2="107.12" y2="140.38"/>
  <line x1="100.00" y1="131.00" x2="100.00" y2="141.06"/>
  <line x1="94.62" y1="130.53" x2="92.56" y2="142.21"/>
  <line x1="89.40" y1="129.13" x2="84.90" y2="141.49"/>
  <line x1="84.50" y1="126.85" x2="78.16" y2="137.82"/>
  <line x1="80.07" y1="123.75" x2="72.38" y2="132.92"/>
  <line x1="76.25" y1="119.93" x2="66.02" y2="128.51"/>
  <line x1="73.15" y1="115.50" x2="58.86" y2="123.75"/>
  <line x1="70.87" y1="110.60" x2="53.68" y2="116.86"/>
  <line x1="69.47" y1="105.38" x2="53.37" y2="108.22"/>
  <line x1="69.00" y1="100.00" x2="56.99" y2="100.00"/>
  <line x1="69.47" y1="94.62" x2="60.64" y2="93.06"/>
  <line x1="70.87" y1="89.40" x2="62.21" y2="86.25"/>
  <line x1="73.15" y1="84.50" x2="63.45" y2="78.90"/>
  <line x1="76.25" y1="80.07" x2="66.83" y2="72.17"/>
  <line x1="80.07" y1="76.25" x2="72.31" y2="67.00"/>
  <line x1="84.50" y1="73.15" x2="78.33" y2="62.47"/>
  <line x1="89.40" y1="70.87" x2="84.57" y2="57.60"/>
  <line x1="94.62" y1="69.47" x2="91.84" y2="53.71"/>
</g>
<circle cx="114.05" cy="65.23" r="15" fill="#FAFAF7"/>
<circle cx="114.05" cy="65.23" r="10" fill="#B8860B"/>

</svg>
