<svg xmlns="http://www.w3.org/2000/svg" viewBox="0 0 200 200" width="200" height="200">
  <rect width="200" height="200" fill="#FAFAF7"/>
  <path d="M 100.00 58.78 L 100.72 58.81 L 101.44 58.86 L 102.15 58.94 L 102.86 59.04 L 103.57 59.16 L 104.28 59.28 L 104.98 59.42 L 105.68 59.55 L 106.39 59.68 L 107.09 59.80 L 107.79 59.90 L 108.50 59.99 L 109.22 60.07 L 109.94 60.13 L 110.67 60.17 L 111.41 60.21 L 112.16 60.23 L 112.92 60.25 L 113.68 60.26 L 114.45 60.29 L 115.23 60.32 L 116.01 60.38 L 116.79 60.46 L 117.56 60.56 L 118.32 60.71 L 119.08 60.89 L 119.82 61.11 L 120.54 61.38 L 121.24 61.69 L 121.91 62.05 L 122.57 62.45 L 123.19 62.89 L 123.79 63.36 L 124.37 63.88 L 124.92 64.42 L 125.44 64.98 L 125.95 65.56 L 126.45 66.15 L 126.93 66.74 L 127.41 67.34 L 127.88 67.93 L 128.35 68.52 L 128.82 69.09 L 129.30 69.66 L 129.79 70.21 L 130.29 70.74 L 130.81 71.27 L 131.33 71.79 L 131.86 72.30 L 132.40 72.81 L 132.94 73.32 L 133.48 73.84 L 134.01 74.37 L 134.53 74.91 L 135.03 75.47 L 135.51 76.05 L 135.95 76.65 L 136.36 77.28 L 136.72 77.94 L 137.04 78.61 L 137.31 79.32 L 137.53 80.04 L 137.70 80.79 L 137.83 81.55 L 137.90 82.33 L 137.94 83.11 L 137.94 83.90 L 137.91 84.68 L 137.86 85.47 L 137.80 86.24 L 137.73 87.01 L 137.67 87.76 L 137.63 88.49 L 137.62 89.21 L 137.63 89.92 L 137.69 90.60 L 137.79 91.28 L 137.94 91.94 L 138.14 92.59 L 138.39 93.23 L 138.69 93.87 L 139.04 94.51 L 139.42 95.16 L 139.85 95.81 L 140.30 96.47 L 140.76 97.15 L 141.24 97.84 L 141.71 98.54 L 142.16 99.26 L 142.59 100.00 L 142.99 100.75 L 143.34 101.51 L 143.64 102.29 L 143.88 103.07 L 144.06 103.85 L 144.17 104.64 L 144.21 105.43 L 144.19 106.21 L 144.09 106.98 L 143.94 107.75 L 143.72 108.50 L 143.45 109.24 L 143.14 109.96 L 142.78 110.67 L 142.40 111.36 L 141.99 112.04 L 141.57 112.71 L 141.14 113.37 L 140.71 114.02 L 140.28 114.66 L 139.87 115.30 L 139.46 115.94 L 139.07 116.58 L 138.69 117.22 L 138.32 117.87 L 137.97 118.52 L 137.62 119.17 L 137.28 119.82 L 136.94 120.48 L 136.59 121.13 L 136.24 121.78 L 135.88 122.42 L 135.49 123.05 L 135.09 123.67 L 134.66 124.27 L 134.20 124.85 L 133.72 125.41 L 133.21 125.94 L 132.67 126.45 L 132.10 126.94 L 131.52 127.40 L 130.91 127.83 L 130.29 128.24 L 129.65 128.64 L 129.01 129.01 L 128.37 129.37 L 127.72 129.73 L 127.08 130.08 L 126.46 130.43 L 125.84 130.79 L 125.24 131.16 L 124.65 131.55 L 124.08 131.95 L 123.52 132.37 L 122.98 132.81 L 122.45 133.28 L 121.92 133.76 L 121.41 134.26 L 120.90 134.78 L 120.38 135.30 L 119.86 135.84 L 119.34 136.37 L 118.80 136.90 L 118.25 137.41 L 117.68 137.91 L 117.09 138.38 L 116.48 138.82 L 115.85 139.23 L 115.20 139.61 L 114.54 139.94 L 113.85 140.23 L 113.15 140.48 L 112.44 140.70 L 111.72 140.87 L 110.99 141.01 L 110.25 141.13 L 109.52 141.22 L 108.78 141.30 L 108.04 141.36 L 107.30 141.42 L 106.57 141.49 L 105.84 141.56 L 105.11 141.64 L 104.39 141.75 L 103.66 141.87 L 102.94 142.02 L 102.21 142.18 L 101.48 142.37 L 100.74 142.57 L 100.00 142.78 L 99.25 143.00 L 98.49 143.22 L 97.72 143.44 L 96.95 143.63 L 96.17 143.80 L 95.38 143.93 L 94.59 144.03 L 93.81 144.07 L 93.02 144.05 L 92.25 143.97 L 91.48 143.83 L 90.73 143.62 L 90.00 143.33 L 89.28 142.98 L 88.59 142.57 L 87.93 142.09 L 87.30 141.55 L 86.69 140.97 L 86.11 140.35 L 85.55 139.70 L 85.02 139.04 L 84.50 138.36 L 84.00 137.68 L 83.52 137.02 L 83.04 136.37 L 82.56 135.75 L 82.08 135.17 L 81.59 134.62 L 81.09 134.12 L 80.56 133.67 L 80.02 133.26 L 79.45 132.89 L 78.85 132.56 L 78.23 132.27 L 77.58 132.01 L 76.91 131.78 L 76.21 131.57 L 75.50 131.36 L 74.77 131.16 L 74.03 130.95 L 73.29 130.73 L 72.55 130.49 L 71.82 130.22 L 71.10 129.93 L 70.40 129.60 L 69.72 129.24 L 69.07 128.84 L 68.45 128.41 L 67.87 127.93 L 67.31 127.43 L 66.79 126.89 L 66.31 126.32 L 65.85 125.73 L 65.42 125.12 L 65.01 124.50 L 64.62 123.86 L 64.25 123.22 L 63.89 122.57 L 63.53 121.91 L 63.17 121.26 L 62.81 120.61 L 62.44 119.97 L 62.07 119.32 L 61.69 118.68 L 61.31 118.04 L 60.91 117.40 L 60.52 116.76 L 60.12 116.11 L 59.73 115.46 L 59.34 114.80 L 58.97 114.13 L 58.62 113.44 L 58.30 112.75 L 58.01 112.04 L 57.75 111.32 L 57.53 110.59 L 57.36 109.84 L 57.23 109.09 L 57.15 108.33 L 57.12 107.56 L 57.13 106.79 L 57.19 106.02 L 57.29 105.24 L 57.42 104.48 L 57.58 103.71 L 57.76 102.95 L 57.96 102.20 L 58.17 101.46 L 58.38 100.73 L 58.59 100.00 L 58.79 99.28 L 58.98 98.57 L 59.15 97.86 L 59.29 97.15 L 59.42 96.45 L 59.52 95.75 L 59.61 95.04 L 59.67 94.33 L 59.72 93.62 L 59.76 92.90 L 59.79 92.18 L 59.83 91.46 L 59.87 90.74 L 59.93 90.01 L 60.01 89.28 L 60.11 88.56 L 60.25 87.85 L 60.41 87.14 L 60.62 86.44 L 60.87 85.76 L 61.15 85.09 L 61.48 84.44 L 61.84 83.80 L 62.23 83.19 L 62.66 82.59 L 63.10 82.00 L 63.56 81.43 L 64.03 80.88 L 64.50 80.32 L 64.97 79.78 L 65.43 79.23 L 65.87 78.68 L 66.29 78.11 L 66.69 77.53 L 67.06 76.93 L 67.40 76.31 L 67.71 75.67 L 67.99 74.99 L 68.25 74.29 L 68.50 73.56 L 68.72 72.81 L 68.94 72.03 L 69.16 71.24 L 69.38 70.43 L 69.61 69.61 L 69.87 68.80 L 70.15 67.99 L 70.47 67.20 L 70.82 66.44 L 71.22 65.71 L 71.67 65.02 L 72.17 64.38 L 72.71 63.79 L 73.31 63.26 L 73.95 62.80 L 74.64 62.40 L 75.36 62.06 L 76.13 61.79 L 76.92 61.58 L 77.73 61.43 L 78.57 61.34 L 79.41 61.28 L 80.26 61.27 L 81.11 61.28 L 81.96 61.31 L 82.79 61.36 L 83.62 61.40 L 84.42 61.45 L 85.21 61.48 L 85.98 61.49 L 86.73 61.47 L 87.47 61.43 L 88.19 61.36 L 88.89 61.26 L 89.59 61.13 L 90.27 60.97 L 90.95 60.79 L 91.62 60.59 L 92.30 60.38 L 92.97 60.15 L 93.65 59.93 L 94.34 59.71 L 95.03 59.50 L 95.72 59.32 L 96.43 59.15 L 97.13 59.01 L 97.85 58.91 L 98.56 58.83 L 99.28 58.79 L 100.00 58.78 Z M 135 100 A 35 35 0 1 0 65 100 A 35 35 0 1 0 135 100 Z" fill="#B8860B" fill-rule="evenodd"/>
<circle cx="114.42" cy="64.30" r="15" fill="#FAFAF7"/>
<circle cx="114.42" cy="64.30" r="10" fill="#B8860B"/>

</svg>
