<svg xmlns="http://www.w3.org/2000/svg" viewBox="0 0 200 200" width="200" height="200">
  <rect width="200" height="200" fill="#FAFAF7"/>
  <g stroke="#B8860B" stroke-width="1.3" stroke-linecap="round" fill="none">
  <line x1="100.00" y1="67.00" x2="100.00" y2="57.45"/>
  <line x1="123.33" y1="76.67" x2="130.88" y2="69.12"/>
  <line x1="126.70" y1="80.60" x2="135.46" y2="74.23"/>
  <line x1="129.40" y1="85.02" x2="136.98" y2="81.16"/>
  <line x1="131.38" y1="89.80" x2="137.00" y2="87.98"/>
  <line x1="132.59" y1="94.84" x2="139.35" y2="93.77"/>
  <line x1="133.00" y1="100.00" x2="143.79" y2="100.00"/>
  <line x1="132.59" y1="105.16" x2="145.84" y2="107.26"/>
  <line x1="131.38" y1="110.20" x2="143.36" y2="114.09"/>
  <line x1="129.40" y1="114.98" x2="139.01" y2="119.88"/>
  <line x1="126.70" y1="119.40" x2="135.15" y2="125.54"/>
  <line x1="123.33" y1="123.33" x2="130.73" y2="130.73"/>
  <line x1="119.40" y1="126.70" x2="124.70" y2="134.00"/>
  <line x1="114.98" y1="129.40" x2="118.36" y2="136.03"/>
  <line x1="110.20" y1="131.38" x2="112.67" y2="139.00"/>
  <line x1="105.16" y1="132.59" x2="106.71" y2="142.37"/>
  <line x1="100.00" y1="133.00" x2="100.00" y2="143.45"/>
  <line x1="94.84" y1="132.59" x2="93.32" y2="142.19"/>
  <line x1="89.80" y1="131.38" x2="86.58" y2="141.31"/>
  <line x1="85.02" y1="129.40" x2="79.15" y2="140.92"/>
  <line x1="80.60" y1="126.70" x2="72.56" y2="137.77"/>
  <line x1="76.67" y1="123.33" x2="69.14" y2="130.86"/>
  <line x1="73.30" y1="119.40" x2="67.80" y2="123.39"/>
  <line x1="70.60" y1="114.98" x2="65.04" y2="117.81"/>
  <line x1="68.62" y1="110.20" x2="60.47" y2="112.84"/>
  <line x1="67.41" y1="105.16" x2="57.29" y2="106.77"/>
  <line x1="67.00" y1="100.00" x2="56.79" y2="100.00"/>
  <line x1="67.41" y1="94.84" x2="56.99" y2="93.19"/>
  <line x1="68.62" y1="89.80" x2="57.17" y2="86.08"/>
  <line x1="70.60" y1="85.02" x2="59.47" y2="79.35"/>
  <line x1="73.30" y1="80.60" x2="64.61" y2="74.29"/>
  <line x1="76.67" y1="76.67" x2="70.30" y2="70.30"/>
  <line x1="80.60" y1="73.30" x2="75.18" y2="65.84"/>
  <line x1="85.02" y1="70.60" x2="80.58" y2="61.88"/>
  <line x1="89.80" y1="68.62" x2="87.19" y2="60.58"/>
  <line x1="94.84" y1="67.41" x2="93.78" y2="60.72"/>
</g>
<circle cx="114.24" cy="64.77" r="15" fill="#FAFAF7"/>
<circle cx="114.24" cy="64.77" r="10" fill="#B8860B"/>

</svg>
