<svg xmlns="http://www.w3.org/2000/svg" viewBox="0 0 200 200" width="200" height="200">
  <rect width="200" height="200" fill="#FAFAF7"/>
  <g stroke="#B8860B" stroke-width="1.3" stroke-linecap="round" fill="none">
  <line x1="100.00" y1="64.00" x2="100.00" y2="60.20"/>
  <line x1="125.46" y1="74.54" x2="128.50" y2="71.50"/>
  <line x1="128.56" y1="78.08" x2="132.08" y2="75.38"/>
  <line x1="131.18" y1="82.00" x2="134.45" y2="80.11"/>
  <line x1="133.26" y1="86.22" x2="135.69" y2="85.22"/>
  <line x1="134.77" y1="90.68" x2="136.78" y2="90.14"/>
  <line x1="135.69" y1="95.30" x2="138.49" y2="94.93"/>
  <line x1="136.00" y1="100.00" x2="140.36" y2="100.00"/>
  <line x1="135.69" y1="104.70" x2="141.10" y2="105.41"/>
  <line x1="134.77" y1="109.32" x2="140.01" y2="110.72"/>
  <line x1="133.26" y1="113.78" x2="137.61" y2="115.58"/>
  <line x1="131.18" y1="118.00" x2="134.83" y2="120.11"/>
  <line x1="128.56" y1="121.92" x2="131.91" y2="124.49"/>
  <line x1="125.46" y1="125.46" x2="128.43" y2="128.43"/>
  <line x1="121.92" y1="128.56" x2="124.17" y2="131.50"/>
  <line x1="118.00" y1="131.18" x2="119.51" y2="133.79"/>
  <line x1="113.78" y1="133.26" x2="114.86" y2="135.88"/>
  <line x1="109.32" y1="134.77" x2="110.19" y2="138.04"/>
  <line x1="104.70" y1="135.69" x2="105.23" y2="139.72"/>
  <line x1="100.00" y1="136.00" x2="100.00" y2="140.20"/>
  <line x1="95.30" y1="135.69" x2="94.79" y2="139.57"/>
  <line x1="90.68" y1="134.77" x2="89.66" y2="138.60"/>
  <line x1="86.22" y1="133.26" x2="84.41" y2="137.63"/>
  <line x1="82.00" y1="131.18" x2="79.20" y2="136.03"/>
  <line x1="78.08" y1="128.56" x2="74.71" y2="132.95"/>
  <line x1="74.54" y1="125.46" x2="71.51" y2="128.49"/>
  <line x1="71.44" y1="121.92" x2="69.24" y2="123.61"/>
  <line x1="68.82" y1="118.00" x2="66.93" y2="119.09"/>
  <line x1="66.74" y1="113.78" x2="64.19" y2="114.83"/>
  <line x1="65.23" y1="109.32" x2="61.65" y2="110.28"/>
  <line x1="64.31" y1="104.70" x2="60.20" y2="105.24"/>
  <line x1="64.00" y1="100.00" x2="59.91" y2="100.00"/>
  <line x1="64.31" y1="95.30" x2="60.17" y2="94.76"/>
  <line x1="65.23" y1="90.68" x2="60.70" y2="89.47"/>
  <line x1="66.74" y1="86.22" x2="61.99" y2="84.26"/>
  <line x1="68.82" y1="82.00" x2="64.54" y2="79.53"/>
  <line x1="71.44" y1="78.08" x2="68.13" y2="75.55"/>
  <line x1="74.54" y1="74.54" x2="72.03" y2="72.03"/>
  <line x1="78.08" y1="71.44" x2="75.90" y2="68.59"/>
  <line x1="82.00" y1="68.82" x2="80.06" y2="65.46"/>
  <line x1="86.22" y1="66.74" x2="84.80" y2="63.31"/>
  <line x1="90.68" y1="65.23" x2="89.91" y2="62.34"/>
  <line x1="95.30" y1="64.31" x2="94.97" y2="61.80"/>
</g>
<circle cx="114.24" cy="64.77" r="15" fill="#FAFAF7"/>
<circle cx="114.24" cy="64.77" r="10" fill="#B8860B"/>

</svg>
