<svg xmlns="http://www.w3.org/2000/svg" viewBox="0 0 200 200" width="200" height="200">
  <rect width="200" height="200" fill="#FAFAF7"/>
  <g stroke="#B8860B" stroke-width="1.1" stroke-linecap="round" fill="none">
  <line x1="100.00" y1="48.00" x2="100.00" y2="45.93"/>
  <line x1="103.89" y1="48.15" x2="104.04" y2="46.13"/>
  <line x1="107.75" y1="48.58" x2="108.10" y2="46.29"/>
  <line x1="111.57" y1="49.30" x2="112.12" y2="46.90"/>
  <line x1="115.33" y1="50.31" x2="116.01" y2="48.10"/>
  <line x1="119.00" y1="51.59" x2="119.78" y2="49.61"/>
  <line x1="122.56" y1="53.15" x2="123.56" y2="51.07"/>
  <line x1="126.00" y1="54.97" x2="127.47" y2="52.41"/>
  <line x1="129.29" y1="57.04" x2="131.40" y2="53.95"/>
  <line x1="132.42" y1="59.34" x2="135.02" y2="56.09"/>
  <line x1="135.37" y1="61.88" x2="138.10" y2="58.94"/>
  <line x1="138.12" y1="64.63" x2="140.68" y2="62.25"/>
  <line x1="140.66" y1="67.58" x2="143.11" y2="65.62"/>
  <line x1="142.96" y1="70.71" x2="145.62" y2="68.90"/>
  <line x1="145.03" y1="74.00" x2="148.10" y2="72.23"/>
  <line x1="146.85" y1="77.44" x2="150.08" y2="75.88"/>
  <line x1="148.41" y1="81.00" x2="151.17" y2="79.92"/>
  <line x1="149.69" y1="84.67" x2="151.49" y2="84.12"/>
  <line x1="150.70" y1="88.43" x2="151.66" y2="88.21"/>
  <line x1="151.42" y1="92.25" x2="152.37" y2="92.11"/>
  <line x1="151.85" y1="96.11" x2="153.79" y2="95.97"/>
  <line x1="152.00" y1="100.00" x2="155.40" y2="100.00"/>
  <line x1="151.85" y1="103.89" x2="156.35" y2="104.22"/>
  <line x1="151.42" y1="107.75" x2="156.11" y2="108.46"/>
  <line x1="150.70" y1="111.57" x2="154.83" y2="112.51"/>
  <line x1="149.69" y1="115.33" x2="153.07" y2="116.37"/>
  <line x1="148.41" y1="119.00" x2="151.34" y2="120.15"/>
  <line x1="146.85" y1="122.56" x2="149.67" y2="123.92"/>
  <line x1="145.03" y1="126.00" x2="147.76" y2="127.57"/>
  <line x1="142.96" y1="129.29" x2="145.32" y2="130.90"/>
  <line x1="140.66" y1="132.42" x2="142.41" y2="133.82"/>
  <line x1="138.12" y1="135.37" x2="139.40" y2="136.56"/>
  <line x1="135.37" y1="138.12" x2="136.57" y2="139.41"/>
  <line x1="132.42" y1="140.66" x2="133.87" y2="142.47"/>
  <line x1="129.29" y1="142.96" x2="131.01" y2="145.49"/>
  <line x1="126.00" y1="145.03" x2="127.72" y2="148.02"/>
  <line x1="122.56" y1="146.85" x2="124.02" y2="149.87"/>
  <line x1="119.00" y1="148.41" x2="120.13" y2="151.28"/>
  <line x1="115.33" y1="149.69" x2="116.25" y2="152.70"/>
  <line x1="111.57" y1="150.70" x2="112.40" y2="154.31"/>
  <line x1="107.75" y1="151.42" x2="108.41" y2="155.79"/>
  <line x1="103.89" y1="151.85" x2="104.23" y2="156.47"/>
  <line x1="100.00" y1="152.00" x2="100.00" y2="155.93"/>
  <line x1="96.11" y1="151.85" x2="95.92" y2="154.41"/>
  <line x1="92.25" y1="151.42" x2="92.06" y2="152.67"/>
  <line x1="88.43" y1="150.70" x2="88.25" y2="151.47"/>
  <line x1="84.67" y1="149.69" x2="84.28" y2="150.96"/>
  <line x1="81.00" y1="148.41" x2="80.11" y2="150.67"/>
  <line x1="77.44" y1="146.85" x2="75.97" y2="149.90"/>
  <line x1="74.00" y1="145.03" x2="72.13" y2="148.27"/>
  <line x1="70.71" y1="142.96" x2="68.67" y2="145.95"/>
  <line x1="67.58" y1="140.66" x2="65.41" y2="143.37"/>
  <line x1="64.63" y1="138.12" x2="62.17" y2="140.77"/>
  <line x1="61.88" y1="135.37" x2="58.99" y2="138.05"/>
  <line x1="59.34" y1="132.42" x2="56.19" y2="134.94"/>
  <line x1="57.04" y1="129.29" x2="54.05" y2="131.33"/>
  <line x1="54.97" y1="126.00" x2="52.53" y2="127.41"/>
  <line x1="53.15" y1="122.56" x2="51.23" y2="123.49"/>
  <line x1="51.59" y1="119.00" x2="49.76" y2="119.72"/>
  <line x1="50.31" y1="115.33" x2="48.11" y2="116.01"/>
  <line x1="49.30" y1="111.57" x2="46.66" y2="112.17"/>
  <line x1="48.58" y1="107.75" x2="45.86" y2="108.16"/>
  <line x1="48.15" y1="103.89" x2="45.75" y2="104.07"/>
  <line x1="48.00" y1="100.00" x2="45.90" y2="100.00"/>
  <line x1="48.15" y1="96.11" x2="45.75" y2="95.93"/>
  <line x1="48.58" y1="92.25" x2="45.23" y2="91.74"/>
  <line x1="49.30" y1="88.43" x2="44.82" y2="87.41"/>
  <line x1="50.31" y1="84.67" x2="45.31" y2="83.13"/>
  <line x1="51.59" y1="81.00" x2="47.10" y2="79.24"/>
  <line x1="53.15" y1="77.44" x2="49.92" y2="75.88"/>
  <line x1="54.97" y1="74.00" x2="53.03" y2="72.88"/>
  <line x1="57.04" y1="70.71" x2="55.79" y2="69.86"/>
  <line x1="59.34" y1="67.58" x2="58.10" y2="66.59"/>
  <line x1="61.88" y1="64.63" x2="60.32" y2="63.18"/>
  <line x1="64.63" y1="61.88" x2="62.88" y2="59.99"/>
  <line x1="67.58" y1="59.34" x2="65.92" y2="57.27"/>
  <line x1="70.71" y1="57.04" x2="69.26" y2="54.91"/>
  <line x1="74.00" y1="54.97" x2="72.63" y2="52.60"/>
  <line x1="77.44" y1="53.15" x2="76.01" y2="50.18"/>
  <line x1="81.00" y1="51.59" x2="79.55" y2="47.89"/>
  <line x1="84.67" y1="50.31" x2="83.40" y2="46.18"/>
  <line x1="88.43" y1="49.30" x2="87.53" y2="45.35"/>
  <line x1="92.25" y1="48.58" x2="91.74" y2="45.21"/>
  <line x1="96.11" y1="48.15" x2="95.90" y2="45.29"/>
</g>
<circle cx="37.98" cy="77.43" r="4.5" fill="#B8860B"/>

</svg>
