<svg xmlns="http://www.w3.org/2000/svg" viewBox="0 0 200 200" width="200" height="200">
  <rect width="200" height="200" fill="#FAFAF7"/>
  <g stroke="#B8860B" stroke-width="1" stroke-linecap="round" fill="none">
  <line x1="100.00" y1="42.00" x2="100.00" y2="39.16"/>
  <line x1="104.33" y1="42.16" x2="104.54" y2="39.39"/>
  <line x1="108.64" y1="42.65" x2="109.11" y2="39.54"/>
  <line x1="112.91" y1="43.45" x2="113.65" y2="40.20"/>
  <line x1="117.10" y1="44.58" x2="118.02" y2="41.57"/>
  <line x1="121.19" y1="46.01" x2="122.25" y2="43.30"/>
  <line x1="125.17" y1="47.74" x2="126.52" y2="44.93"/>
  <line x1="129.00" y1="49.77" x2="130.97" y2="46.36"/>
  <line x1="132.67" y1="52.08" x2="135.44" y2="48.01"/>
  <line x1="136.16" y1="54.65" x2="139.57" y2="50.39"/>
  <line x1="139.45" y1="57.48" x2="143.03" y2="53.63"/>
  <line x1="142.52" y1="60.55" x2="145.91" y2="57.41"/>
  <line x1="145.35" y1="63.84" x2="148.61" y2="61.24"/>
  <line x1="147.92" y1="67.33" x2="151.45" y2="64.92"/>
  <line x1="150.23" y1="71.00" x2="154.27" y2="68.66"/>
  <line x1="152.26" y1="74.83" x2="156.51" y2="72.78"/>
  <line x1="153.99" y1="78.81" x2="157.68" y2="77.36"/>
  <line x1="155.42" y1="82.90" x2="157.91" y2="82.14"/>
  <line x1="156.55" y1="87.09" x2="158.00" y2="86.76"/>
  <line x1="157.35" y1="91.36" x2="158.79" y2="91.14"/>
  <line x1="157.84" y1="95.67" x2="160.51" y2="95.47"/>
  <line x1="158.00" y1="100.00" x2="162.49" y2="100.00"/>
  <line x1="157.84" y1="104.33" x2="163.70" y2="104.77"/>
  <line x1="157.35" y1="108.64" x2="163.47" y2="109.57"/>
  <line x1="156.55" y1="112.91" x2="161.96" y2="114.14"/>
  <line x1="155.42" y1="117.10" x2="159.89" y2="118.47"/>
  <line x1="153.99" y1="121.19" x2="157.89" y2="122.72"/>
  <line x1="152.26" y1="125.17" x2="156.01" y2="126.97"/>
  <line x1="150.23" y1="129.00" x2="153.85" y2="131.09"/>
  <line x1="147.92" y1="132.67" x2="151.07" y2="134.82"/>
  <line x1="145.35" y1="136.16" x2="147.74" y2="138.07"/>
  <line x1="142.52" y1="139.45" x2="144.30" y2="141.10"/>
  <line x1="139.45" y1="142.52" x2="141.12" y2="144.31"/>
  <line x1="136.16" y1="145.35" x2="138.13" y2="147.81"/>
  <line x1="132.67" y1="147.92" x2="134.96" y2="151.28"/>
  <line x1="129.00" y1="150.23" x2="131.28" y2="154.18"/>
  <line x1="125.17" y1="152.26" x2="127.09" y2="156.26"/>
  <line x1="121.19" y1="153.99" x2="122.69" y2="157.82"/>
  <line x1="117.10" y1="155.42" x2="118.33" y2="159.42"/>
  <line x1="112.91" y1="156.55" x2="113.99" y2="161.31"/>
  <line x1="108.64" y1="157.35" x2="109.51" y2="163.06"/>
  <line x1="104.33" y1="157.84" x2="104.79" y2="163.86"/>
  <line x1="100.00" y1="158.00" x2="100.00" y2="163.16"/>
  <line x1="95.67" y1="157.84" x2="95.41" y2="161.28"/>
  <line x1="91.36" y1="157.35" x2="91.08" y2="159.16"/>
  <line x1="87.09" y1="156.55" x2="86.82" y2="157.75"/>
  <line x1="82.90" y1="155.42" x2="82.34" y2="157.25"/>
  <line x1="78.81" y1="153.99" x2="77.61" y2="157.06"/>
  <line x1="74.83" y1="152.26" x2="72.89" y2="156.29"/>
  <line x1="71.00" y1="150.23" x2="68.54" y2="154.49"/>
  <line x1="67.33" y1="147.92" x2="64.64" y2="151.86"/>
  <line x1="63.84" y1="145.35" x2="60.97" y2="148.94"/>
  <line x1="60.55" y1="142.52" x2="57.30" y2="146.02"/>
  <line x1="57.48" y1="139.45" x2="53.69" y2="142.97"/>
  <line x1="54.65" y1="136.16" x2="50.52" y2="139.46"/>
  <line x1="52.08" y1="132.67" x2="48.14" y2="135.36"/>
  <line x1="49.77" y1="129.00" x2="46.50" y2="130.89"/>
  <line x1="47.74" y1="125.17" x2="45.12" y2="126.43"/>
  <line x1="46.01" y1="121.19" x2="43.49" y2="122.18"/>
  <line x1="44.58" y1="117.10" x2="41.59" y2="118.02"/>
  <line x1="43.45" y1="112.91" x2="39.91" y2="113.71"/>
  <line x1="42.65" y1="108.64" x2="39.00" y2="109.19"/>
  <line x1="42.16" y1="104.33" x2="38.92" y2="104.58"/>
  <line x1="42.00" y1="100.00" x2="39.12" y2="100.00"/>
  <line x1="42.16" y1="95.67" x2="38.92" y2="95.42"/>
  <line x1="42.65" y1="91.36" x2="38.21" y2="90.69"/>
  <line x1="43.45" y1="87.09" x2="37.61" y2="85.76"/>
  <line x1="44.58" y1="82.90" x2="38.09" y2="80.90"/>
  <line x1="46.01" y1="78.81" x2="40.16" y2="76.51"/>
  <line x1="47.74" y1="74.83" x2="43.48" y2="72.78"/>
  <line x1="49.77" y1="71.00" x2="47.13" y2="69.48"/>
  <line x1="52.08" y1="67.33" x2="50.32" y2="66.13"/>
  <line x1="54.65" y1="63.84" x2="52.90" y2="62.44"/>
  <line x1="57.48" y1="60.55" x2="55.34" y2="58.56"/>
  <line x1="60.55" y1="57.48" x2="58.19" y2="54.94"/>
  <line x1="63.84" y1="54.65" x2="61.61" y2="51.86"/>
  <line x1="67.33" y1="52.08" x2="65.37" y2="49.21"/>
  <line x1="71.00" y1="49.77" x2="69.17" y2="46.59"/>
  <line x1="74.83" y1="47.74" x2="72.94" y2="43.81"/>
  <line x1="78.81" y1="46.01" x2="76.90" y2="41.14"/>
  <line x1="82.90" y1="44.58" x2="81.24" y2="39.17"/>
  <line x1="87.09" y1="43.45" x2="85.91" y2="38.26"/>
  <line x1="91.36" y1="42.65" x2="90.68" y2="38.19"/>
  <line x1="95.67" y1="42.16" x2="95.38" y2="38.34"/>
</g>

</svg>
