<svg xmlns="http://www.w3.org/2000/svg" viewBox="0 0 200 200" width="200" height="200">
  <rect width="200" height="200" fill="#FAFAF7"/>
  <g stroke="#B8860B" stroke-width="1.4" stroke-linecap="round" fill="none">
  <line x1="100.00" y1="42.00" x2="100.00" y2="38.78"/>
  <line x1="106.06" y1="42.32" x2="106.37" y2="39.39"/>
  <line x1="112.06" y1="43.27" x2="112.66" y2="40.43"/>
  <line x1="117.92" y1="44.84" x2="119.10" y2="41.22"/>
  <line x1="123.59" y1="47.01" x2="125.69" y2="42.29"/>
  <line x1="129.00" y1="49.77" x2="131.91" y2="44.72"/>
  <line x1="134.09" y1="53.08" x2="137.20" y2="48.80"/>
  <line x1="138.81" y1="56.90" x2="141.73" y2="53.65"/>
  <line x1="143.10" y1="61.19" x2="146.19" y2="58.41"/>
  <line x1="146.92" y1="65.91" x2="150.71" y2="63.16"/>
  <line x1="150.23" y1="71.00" x2="154.36" y2="68.61"/>
  <line x1="152.99" y1="76.41" x2="156.21" y2="74.97"/>
  <line x1="155.16" y1="82.08" x2="156.70" y2="81.58"/>
  <line x1="156.73" y1="87.94" x2="157.50" y2="87.78"/>
  <line x1="157.68" y1="93.94" x2="159.74" y2="93.72"/>
  <line x1="158.00" y1="100.00" x2="162.59" y2="100.00"/>
  <line x1="157.68" y1="106.06" x2="164.06" y2="106.73"/>
  <line x1="156.73" y1="112.06" x2="163.01" y2="113.39"/>
  <line x1="155.16" y1="117.92" x2="160.16" y2="119.55"/>
  <line x1="152.99" y1="123.59" x2="156.96" y2="125.36"/>
  <line x1="150.23" y1="129.00" x2="153.91" y2="131.13"/>
  <line x1="146.92" y1="134.09" x2="150.38" y2="136.60"/>
  <line x1="143.10" y1="138.81" x2="145.77" y2="141.21"/>
  <line x1="138.81" y1="143.10" x2="140.47" y2="144.94"/>
  <line x1="134.09" y1="146.92" x2="135.28" y2="148.55"/>
  <line x1="129.00" y1="150.23" x2="130.38" y2="152.63"/>
  <line x1="123.59" y1="152.99" x2="125.22" y2="156.65"/>
  <line x1="117.92" y1="155.16" x2="119.33" y2="159.50"/>
  <line x1="112.06" y1="156.73" x2="112.94" y2="160.86"/>
  <line x1="106.06" y1="157.68" x2="106.48" y2="161.64"/>
  <line x1="100.00" y1="158.00" x2="100.00" y2="162.78"/>
  <line x1="93.94" y1="157.68" x2="93.29" y2="163.82"/>
  <line x1="87.94" y1="156.73" x2="86.57" y2="163.18"/>
  <line x1="82.08" y1="155.16" x2="80.51" y2="159.99"/>
  <line x1="76.41" y1="152.99" x2="75.38" y2="155.29"/>
  <line x1="71.00" y1="150.23" x2="70.56" y2="150.99"/>
  <line x1="65.91" y1="146.92" x2="65.15" y2="147.96"/>
  <line x1="61.19" y1="143.10" x2="59.17" y2="145.35"/>
  <line x1="56.90" y1="138.81" x2="53.59" y2="141.79"/>
  <line x1="53.08" y1="134.09" x2="49.24" y2="136.88"/>
  <line x1="49.77" y1="129.00" x2="45.85" y2="131.26"/>
  <line x1="47.01" y1="123.59" x2="42.64" y2="125.54"/>
  <line x1="44.84" y1="117.92" x2="39.60" y2="119.62"/>
  <line x1="43.27" y1="112.06" x2="37.67" y2="113.25"/>
  <line x1="42.32" y1="106.06" x2="37.53" y2="106.57"/>
  <line x1="42.00" y1="100.00" x2="38.59" y2="100.00"/>
  <line x1="42.32" y1="93.94" x2="39.63" y2="93.66"/>
  <line x1="43.27" y1="87.94" x2="40.26" y2="87.30"/>
  <line x1="44.84" y1="82.08" x2="41.39" y2="80.96"/>
  <line x1="47.01" y1="76.41" x2="43.96" y2="75.05"/>
  <line x1="49.77" y1="71.00" x2="47.65" y2="69.78"/>
  <line x1="53.08" y1="65.91" x2="51.22" y2="64.56"/>
  <line x1="56.90" y1="61.19" x2="54.08" y2="58.65"/>
  <line x1="61.19" y1="56.90" x2="57.09" y2="52.34"/>
  <line x1="65.91" y1="53.08" x2="61.55" y2="47.08"/>
  <line x1="71.00" y1="49.77" x2="67.73" y2="44.11"/>
  <line x1="76.41" y1="47.01" x2="74.66" y2="43.09"/>
  <line x1="82.08" y1="44.84" x2="81.29" y2="42.41"/>
  <line x1="87.94" y1="43.27" x2="87.47" y2="41.03"/>
  <line x1="93.94" y1="42.32" x2="93.63" y2="39.43"/>
</g>

</svg>
