<svg xmlns="http://www.w3.org/2000/svg" viewBox="0 0 200 200" width="200" height="200">
  <rect width="200" height="200" fill="#FAFAF7"/>
  <g stroke="#B8860B" stroke-width="1.4" stroke-linecap="round" fill="none">
  <line x1="100.00" y1="42.00" x2="100.00" y2="38.22"/>
  <line x1="107.57" y1="42.50" x2="108.18" y2="37.87"/>
  <line x1="115.01" y1="43.98" x2="116.37" y2="38.91"/>
  <line x1="122.20" y1="46.41" x2="124.11" y2="41.80"/>
  <line x1="129.00" y1="49.77" x2="131.15" y2="46.04"/>
  <line x1="135.31" y1="53.99" x2="137.76" y2="50.79"/>
  <line x1="141.01" y1="58.99" x2="144.08" y2="55.92"/>
  <line x1="146.01" y1="64.69" x2="149.57" y2="61.96"/>
  <line x1="150.23" y1="71.00" x2="153.48" y2="69.12"/>
  <line x1="153.59" y1="77.80" x2="155.87" y2="76.86"/>
  <line x1="156.02" y1="84.99" x2="157.82" y2="84.51"/>
  <line x1="157.50" y1="92.43" x2="160.17" y2="92.08"/>
  <line x1="158.00" y1="100.00" x2="162.40" y2="100.00"/>
  <line x1="157.50" y1="107.57" x2="163.07" y2="108.30"/>
  <line x1="156.02" y1="115.01" x2="161.41" y2="116.46"/>
  <line x1="153.59" y1="122.20" x2="158.01" y2="124.03"/>
  <line x1="150.23" y1="129.00" x2="153.91" y2="131.12"/>
  <line x1="146.01" y1="135.31" x2="149.38" y2="137.89"/>
  <line x1="141.01" y1="141.01" x2="144.00" y2="144.00"/>
  <line x1="135.31" y1="146.01" x2="137.54" y2="148.93"/>
  <line x1="129.00" y1="150.23" x2="130.45" y2="152.74"/>
  <line x1="122.20" y1="153.59" x2="123.23" y2="156.08"/>
  <line x1="115.01" y1="156.02" x2="115.87" y2="159.23"/>
  <line x1="107.57" y1="157.50" x2="108.10" y2="161.54"/>
  <line x1="100.00" y1="158.00" x2="100.00" y2="162.22"/>
  <line x1="92.43" y1="157.50" x2="91.92" y2="161.38"/>
  <line x1="84.99" y1="156.02" x2="83.96" y2="159.85"/>
  <line x1="77.80" y1="153.59" x2="75.96" y2="158.03"/>
  <line x1="71.00" y1="150.23" x2="68.11" y2="155.24"/>
  <line x1="64.69" y1="146.01" x2="61.22" y2="150.54"/>
  <line x1="58.99" y1="141.01" x2="55.93" y2="144.07"/>
  <line x1="53.99" y1="135.31" x2="51.89" y2="136.92"/>
  <line x1="49.77" y1="129.00" x2="48.05" y2="129.99"/>
  <line x1="46.41" y1="122.20" x2="43.99" y2="123.20"/>
  <line x1="43.98" y1="115.01" x2="40.43" y2="115.96"/>
  <line x1="42.50" y1="107.57" x2="38.37" y2="108.11"/>
  <line x1="42.00" y1="100.00" x2="37.90" y2="100.00"/>
  <line x1="42.50" y1="92.43" x2="38.34" y2="91.88"/>
  <line x1="43.98" y1="84.99" x2="39.38" y2="83.76"/>
  <line x1="46.41" y1="77.80" x2="41.55" y2="75.79"/>
  <line x1="49.77" y1="71.00" x2="45.40" y2="68.48"/>
  <line x1="53.99" y1="64.69" x2="50.67" y2="62.14"/>
  <line x1="58.99" y1="58.99" x2="56.51" y2="56.51"/>
  <line x1="64.69" y1="53.99" x2="62.54" y2="51.18"/>
  <line x1="71.00" y1="49.77" x2="69.06" y2="46.41"/>
  <line x1="77.80" y1="46.41" x2="76.40" y2="43.01"/>
  <line x1="84.99" y1="43.98" x2="84.25" y2="41.20"/>
  <line x1="92.43" y1="42.50" x2="92.12" y2="40.15"/>
</g>

</svg>
