<svg xmlns="http://www.w3.org/2000/svg" viewBox="0 0 1137.03 240.00" width="1137" height="240">
  <g transform="scale(2.0000) translate(-40 -40)">
  
  <defs>
    <mask id="aud-knockout" maskUnits="userSpaceOnUse">
      <rect x="-1000" y="-1000" width="2200" height="2200" fill="white"/>
      <circle cx="114.42" cy="64.30" r="15" fill="black"/>
    </mask>
  </defs>
  <path d="M 100.00 58.52 L 100.72 58.54 L 101.45 58.58 L 102.17 58.65 L 102.89 58.73 L 103.60 58.83 L 104.32 58.93 L 105.03 59.05 L 105.74 59.17 L 106.45 59.29 L 107.16 59.41 L 107.87 59.53 L 108.58 59.63 L 109.30 59.74 L 110.01 59.83 L 110.74 59.93 L 111.47 60.01 L 112.20 60.10 L 112.94 60.18 L 113.68 60.27 L 114.42 60.37 L 115.17 60.48 L 115.92 60.61 L 116.66 60.75 L 117.40 60.92 L 118.13 61.12 L 118.86 61.34 L 119.57 61.60 L 120.26 61.89 L 120.94 62.21 L 121.61 62.57 L 122.25 62.96 L 122.88 63.38 L 123.49 63.84 L 124.07 64.31 L 124.64 64.81 L 125.19 65.33 L 125.73 65.86 L 126.25 66.40 L 126.76 66.95 L 127.27 67.50 L 127.77 68.06 L 128.27 68.61 L 128.76 69.16 L 129.26 69.70 L 129.76 70.24 L 130.27 70.77 L 130.78 71.30 L 131.29 71.83 L 131.81 72.35 L 132.33 72.88 L 132.84 73.41 L 133.35 73.94 L 133.86 74.49 L 134.35 75.05 L 134.82 75.62 L 135.28 76.20 L 135.71 76.81 L 136.11 77.44 L 136.48 78.08 L 136.82 78.74 L 137.12 79.42 L 137.38 80.12 L 137.61 80.84 L 137.80 81.56 L 137.96 82.30 L 138.08 83.05 L 138.18 83.79 L 138.25 84.55 L 138.31 85.29 L 138.35 86.04 L 138.39 86.78 L 138.43 87.51 L 138.48 88.24 L 138.54 88.95 L 138.61 89.65 L 138.71 90.35 L 138.83 91.03 L 138.99 91.71 L 139.17 92.39 L 139.38 93.06 L 139.62 93.72 L 139.89 94.39 L 140.18 95.07 L 140.49 95.74 L 140.81 96.43 L 141.14 97.12 L 141.47 97.83 L 141.80 98.54 L 142.11 99.27 L 142.40 100.00 L 142.66 100.74 L 142.89 101.50 L 143.08 102.26 L 143.22 103.02 L 143.32 103.79 L 143.37 104.56 L 143.37 105.33 L 143.32 106.09 L 143.22 106.85 L 143.08 107.60 L 142.89 108.34 L 142.66 109.07 L 142.40 109.79 L 142.11 110.50 L 141.79 111.20 L 141.45 111.89 L 141.10 112.57 L 140.74 113.24 L 140.38 113.90 L 140.01 114.56 L 139.65 115.22 L 139.29 115.87 L 138.93 116.53 L 138.58 117.18 L 138.24 117.83 L 137.89 118.48 L 137.55 119.14 L 137.21 119.79 L 136.87 120.44 L 136.52 121.09 L 136.16 121.73 L 135.79 122.36 L 135.40 122.99 L 135.00 123.61 L 134.57 124.21 L 134.13 124.80 L 133.66 125.36 L 133.17 125.92 L 132.66 126.45 L 132.13 126.96 L 131.58 127.45 L 131.01 127.92 L 130.43 128.38 L 129.84 128.82 L 129.24 129.24 L 128.64 129.65 L 128.03 130.06 L 127.42 130.46 L 126.82 130.85 L 126.22 131.25 L 125.63 131.66 L 125.05 132.06 L 124.48 132.48 L 123.91 132.91 L 123.35 133.34 L 122.79 133.79 L 122.24 134.25 L 121.69 134.71 L 121.14 135.19 L 120.59 135.66 L 120.03 136.14 L 119.46 136.61 L 118.89 137.07 L 118.30 137.52 L 117.70 137.96 L 117.09 138.38 L 116.46 138.77 L 115.81 139.14 L 115.15 139.47 L 114.48 139.78 L 113.79 140.06 L 113.10 140.30 L 112.39 140.52 L 111.67 140.71 L 110.95 140.87 L 110.22 141.00 L 109.49 141.12 L 108.76 141.22 L 108.03 141.32 L 107.30 141.40 L 106.57 141.49 L 105.84 141.57 L 105.12 141.66 L 104.39 141.75 L 103.66 141.86 L 102.94 141.98 L 102.21 142.10 L 101.47 142.24 L 100.74 142.38 L 100.00 142.52 L 99.26 142.67 L 98.51 142.81 L 97.75 142.94 L 96.99 143.05 L 96.23 143.15 L 95.46 143.21 L 94.69 143.25 L 93.92 143.24 L 93.16 143.20 L 92.40 143.10 L 91.65 142.96 L 90.91 142.77 L 90.18 142.53 L 89.47 142.24 L 88.77 141.90 L 88.10 141.52 L 87.44 141.09 L 86.80 140.63 L 86.18 140.14 L 85.58 139.63 L 84.99 139.09 L 84.42 138.55 L 83.87 138.01 L 83.32 137.47 L 82.78 136.94 L 82.24 136.42 L 81.70 135.92 L 81.15 135.44 L 80.60 134.99 L 80.04 134.57 L 79.47 134.17 L 78.88 133.80 L 78.28 133.45 L 77.66 133.12 L 77.03 132.81 L 76.38 132.51 L 75.72 132.22 L 75.05 131.94 L 74.37 131.65 L 73.69 131.36 L 73.01 131.05 L 72.33 130.73 L 71.66 130.39 L 71.01 130.02 L 70.37 129.63 L 69.74 129.22 L 69.14 128.78 L 68.56 128.30 L 68.01 127.81 L 67.48 127.28 L 66.98 126.74 L 66.51 126.17 L 66.05 125.58 L 65.62 124.98 L 65.21 124.36 L 64.81 123.74 L 64.43 123.10 L 64.05 122.46 L 63.68 121.82 L 63.32 121.18 L 62.96 120.53 L 62.60 119.88 L 62.24 119.24 L 61.88 118.59 L 61.52 117.95 L 61.15 117.30 L 60.79 116.64 L 60.43 115.99 L 60.08 115.32 L 59.74 114.65 L 59.41 113.98 L 59.10 113.29 L 58.81 112.59 L 58.55 111.89 L 58.31 111.17 L 58.10 110.45 L 57.93 109.71 L 57.79 108.97 L 57.69 108.22 L 57.63 107.47 L 57.59 106.72 L 57.60 105.96 L 57.63 105.20 L 57.69 104.45 L 57.77 103.69 L 57.87 102.95 L 57.99 102.20 L 58.12 101.46 L 58.26 100.73 L 58.40 100.00 L 58.53 99.28 L 58.66 98.56 L 58.78 97.84 L 58.90 97.13 L 59.00 96.41 L 59.09 95.70 L 59.17 94.99 L 59.25 94.27 L 59.32 93.56 L 59.38 92.84 L 59.45 92.12 L 59.52 91.40 L 59.61 90.67 L 59.70 89.95 L 59.81 89.23 L 59.95 88.52 L 60.11 87.80 L 60.29 87.10 L 60.51 86.40 L 60.76 85.72 L 61.03 85.04 L 61.34 84.38 L 61.67 83.73 L 62.03 83.10 L 62.42 82.47 L 62.82 81.87 L 63.23 81.27 L 63.66 80.68 L 64.09 80.10 L 64.52 79.52 L 64.95 78.94 L 65.38 78.36 L 65.79 77.78 L 66.19 77.19 L 66.57 76.59 L 66.94 75.98 L 67.29 75.35 L 67.63 74.71 L 67.96 74.05 L 68.27 73.38 L 68.58 72.69 L 68.89 71.99 L 69.20 71.28 L 69.51 70.56 L 69.84 69.84 L 70.19 69.13 L 70.55 68.42 L 70.94 67.73 L 71.36 67.06 L 71.82 66.41 L 72.30 65.80 L 72.83 65.22 L 73.38 64.68 L 73.98 64.18 L 74.60 63.73 L 75.26 63.32 L 75.95 62.97 L 76.66 62.66 L 77.40 62.39 L 78.16 62.16 L 78.92 61.98 L 79.70 61.83 L 80.49 61.70 L 81.27 61.60 L 82.06 61.52 L 82.84 61.45 L 83.61 61.38 L 84.37 61.32 L 85.12 61.25 L 85.87 61.17 L 86.60 61.08 L 87.32 60.97 L 88.03 60.85 L 88.74 60.72 L 89.43 60.56 L 90.13 60.40 L 90.82 60.22 L 91.50 60.03 L 92.19 59.84 L 92.88 59.65 L 93.58 59.46 L 94.28 59.28 L 94.98 59.11 L 95.69 58.95 L 96.40 58.82 L 97.11 58.71 L 97.83 58.62 L 98.55 58.56 L 99.28 58.53 L 100.00 58.52 Z M 135 100 A 35 35 0 1 0 65 100 A 35 35 0 1 0 135 100 Z" fill="#B8860B" fill-rule="evenodd" mask="url(#aud-knockout)"/>
  <circle cx="114.42" cy="64.30" r="10" fill="#B8860B"/>

</g>
  <path d="M21.10 -14.90 L15.70 0.00 L0.50 0.00 L25.60 -67.00 L44.00 -67.00 L69.10 0.00 L53.40 0.00 L48.10 -14.90 L21.10 -14.90 Z M34.60 -55.60 L30.60 -41.40 L25.40 -27.00 L43.70 -27.00 L38.60 -41.40 L34.60 -55.60 Z M87.60 1.00 L87.60 1.00 Q80.60 1.00 76.55 -3.15 Q72.50 -7.30 72.50 -14.80 L72.50 -14.80 L72.50 -49.00 L86.80 -49.00 L86.80 -19.80 Q86.80 -14.90 88.55 -12.50 Q90.30 -10.10 95.00 -10.10 L95.00 -10.10 Q100.00 -10.10 101.95 -12.90 Q103.90 -15.70 103.90 -21.90 L103.90 -21.90 L103.90 -49.00 L118.20 -49.00 L118.20 0.00 L103.90 0.00 L103.90 -13.70 Q102.50 -7.20 98.50 -3.10 Q94.50 1.00 87.60 1.00 Z M144.90 1.10 L144.90 1.10 Q135.90 1.10 130.70 -5.65 Q125.50 -12.40 125.50 -24.50 L125.50 -24.50 Q125.50 -36.50 130.60 -43.25 Q135.70 -50.00 144.30 -50.00 L144.30 -50.00 Q157.20 -50.00 159.90 -35.00 L159.90 -35.00 L159.90 -67.00 L174.20 -67.00 L174.20 0.00 L159.90 0.00 L159.90 -13.80 Q158.80 -7.00 155.35 -2.95 Q151.90 1.10 144.90 1.10 Z M142.80 -35.15 Q140.00 -31.40 140.00 -24.50 Q140.00 -17.60 142.80 -13.85 Q145.60 -10.10 150.60 -10.10 L150.60 -10.10 Q159.90 -10.10 159.90 -21.80 L159.90 -21.80 L159.90 -27.10 Q159.90 -38.90 150.40 -38.90 L150.40 -38.90 Q145.60 -38.90 142.80 -35.15 Z M198.50 -67.00 L198.50 -54.80 L184.20 -54.80 L184.20 -67.00 L198.50 -67.00 Z M198.50 -49.00 L198.50 0.00 L184.20 0.00 L184.20 -49.00 L198.50 -49.00 Z M228.00 1.00 L228.00 1.00 Q220.20 1.00 216.15 -3.20 Q212.10 -7.40 212.10 -14.50 L212.10 -14.50 L212.10 -38.10 L204.80 -38.10 L204.80 -49.00 L212.10 -49.00 L212.10 -54.80 L226.40 -62.30 L226.40 -49.00 L240.00 -49.00 L240.00 -38.10 L226.40 -38.10 L226.40 -17.10 Q226.40 -11.70 231.20 -11.70 L231.20 -11.70 Q235.60 -11.70 238.50 -16.90 L238.50 -16.90 L242.60 -5.20 Q240.70 -2.80 236.90 -0.90 Q233.10 1.00 228.00 1.00 Z M263.70 -27.50 L263.70 0.00 L249.40 0.00 L249.40 -67.00 L263.70 -67.00 L263.70 -40.20 L292.30 -40.20 L292.30 -67.00 L306.60 -67.00 L306.60 0.00 L292.30 0.00 L292.30 -27.50 L263.70 -27.50 Z M328.40 1.10 L328.40 1.10 Q322.50 1.10 319.00 -2.00 Q315.50 -5.10 315.50 -10.90 L315.50 -10.90 Q315.50 -16.30 318.90 -19.80 Q322.30 -23.30 329.50 -25.80 L329.50 -25.80 L344.50 -31.40 Q344.10 -34.60 342.35 -36.20 Q340.60 -37.80 336.70 -37.80 L336.70 -37.80 Q332.20 -37.80 328.10 -35.50 Q324.00 -33.20 321.40 -29.40 L321.40 -29.40 L314.20 -39.80 Q323.60 -50.00 337.70 -50.00 L337.70 -50.00 Q347.10 -50.00 352.20 -45.15 Q357.30 -40.30 357.30 -31.10 L357.30 -31.10 L357.30 -14.30 Q357.30 -11.40 359.90 -11.40 L359.90 -11.40 L362.80 -11.40 L362.80 0.00 L354.40 0.00 Q350.00 0.00 347.15 -2.25 Q344.30 -4.50 344.30 -9.40 L344.30 -9.40 L344.30 -12.70 Q342.90 -6.90 339.05 -2.90 Q335.20 1.10 328.40 1.10 Z M328.70 -13.00 L328.70 -13.00 Q328.70 -9.40 333.70 -9.40 L333.70 -9.40 Q338.80 -9.40 341.55 -11.85 Q344.30 -14.30 344.30 -18.80 L344.30 -18.80 L344.30 -22.20 L333.90 -17.90 Q328.70 -15.80 328.70 -13.00 Z M383.90 -67.00 L383.90 0.00 L369.60 0.00 L369.60 -67.00 L383.90 -67.00 Z M416.00 1.00 L416.00 1.00 Q404.90 1.00 398.20 -6.10 Q391.50 -13.20 391.50 -24.50 Q391.50 -35.80 398.20 -42.90 Q404.90 -50.00 416.00 -50.00 L416.00 -50.00 Q427.40 -50.00 434.20 -42.90 Q441.00 -35.80 441.00 -24.50 L441.00 -24.50 Q441.00 -13.10 434.20 -6.05 Q427.40 1.00 416.00 1.00 Z M416.20 -10.60 L416.20 -10.60 Q426.50 -10.60 426.50 -24.50 Q426.50 -38.40 416.20 -38.40 L416.20 -38.40 Q406.00 -38.40 406.00 -24.50 Q406.00 -10.60 416.20 -10.60 Z" transform="translate(282.23 183.87) scale(1.9383)" fill="#0A1428"/>
</svg>
